<?xml version="1.0" encoding="utf-8"?>
<!-- Generator: Adobe Illustrator 26.2.1, SVG Export Plug-In . SVG Version: 6.00 Build 0)  -->
<svg version="1.1" id="Capa_1" xmlns="http://www.w3.org/2000/svg" xmlns:xlink="http://www.w3.org/1999/xlink" x="0px" y="0px"
	 viewBox="0 0 495 495" style="enable-background:new 0 0 495 495;" xml:space="preserve">
<style type="text/css">
	.st0{fill:#8E8E8E;}
</style>
<g>
	<path class="st0" d="M327,201.2v-2.6c0-7-5.7-12.7-12.7-12.7H180.7c-7,0-12.7,5.7-12.7,12.7v97.6c0,0,0,0,0,0
		c0,7,5.7,12.7,12.7,12.7h133.6c7,0,12.7-5.7,12.7-12.7V201.2C327,201.3,327,201.3,327,201.2z M180.7,190.8h133.6
		c4.3,0,7.9,3.5,7.9,7.9v1.6c-11.3,11.2-29.8,29.7-45.2,45.1l-24.1-24.1c-2.9-2.9-7.7-2.9-10.7,0l-69.3,69.3v-91.8
		C172.8,194.3,176.3,190.8,180.7,190.8z M314.3,304.2H180.7c-4,0-7.3-3-7.8-6.9l72.7-72.7c1.1-1.1,2.8-1.1,3.9,0l24.1,24.1
		c-12.7,12.7-22.4,22.5-22.9,23c-0.8,1.1-0.6,2.6,0.5,3.4c0.4,0.3,0.9,0.5,1.4,0.5c0.7,0,1.4-0.3,1.9-0.9
		c1.8-2.1,46.1-46.2,67.7-67.7v89.3C322.2,300.7,318.7,304.2,314.3,304.2z"/>
	<path class="st0" d="M201.2,231.9c7,0,12.7-5.7,12.7-12.7s-5.7-12.7-12.7-12.7s-12.7,5.7-12.7,12.7S194.2,231.9,201.2,231.9z
		 M201.2,211.4c4.3,0,7.9,3.5,7.9,7.9c0,4.3-3.5,7.9-7.9,7.9c-4.3,0-7.9-3.5-7.9-7.9C193.4,214.9,196.9,211.4,201.2,211.4z"/>
</g>
</svg>
